TITLE "135.200, flac"
FILE "135.200.flac" WAVE

TRACK 01 AUDIO
TITLE "2020.02.06-05:59.26:164062"
INDEX 01 00:25:63

TRACK 02 AUDIO
TITLE "2020.02.06-05:59.57:785799"
INDEX 00 00:36:69
INDEX 01 00:57:35

TRACK 03 AUDIO
TITLE "2020.02.06-06:00.01:264153"
INDEX 00 01:00:14
INDEX 01 01:00:70

TRACK 04 AUDIO
TITLE "2020.02.06-06:00.26:984155"
INDEX 00 01:23:34
INDEX 01 01:26:49

TRACK 05 AUDIO
TITLE "2020.02.06-06:00.34:284170"
INDEX 00 01:33:24
INDEX 01 01:33:72

TRACK 06 AUDIO
TITLE "2020.02.06-06:01.26:584087"
INDEX 00 01:48:51
INDEX 01 02:26:19

TRACK 07 AUDIO
TITLE "2020.02.06-06:03.04:304166"
INDEX 00 02:36:58
INDEX 01 04:03:73

TRACK 08 AUDIO
TITLE "2020.02.06-06:03.13:484134"
INDEX 00 04:11:22
INDEX 01 04:13:12

TRACK 09 AUDIO
TITLE "2020.02.06-06:03.48:704120"
INDEX 00 04:46:37
INDEX 01 04:48:28

TRACK 10 AUDIO
TITLE "2020.02.06-06:03.55:124127"
INDEX 00 04:54:55
INDEX 01 04:54:60

TRACK 11 AUDIO
TITLE "2020.02.06-06:04.01:528129"
INDEX 00 04:59:21
INDEX 01 05:01:15

TRACK 12 AUDIO
TITLE "2020.02.06-06:04.21:564068"
INDEX 00 05:12:18
INDEX 01 05:21:18

TRACK 13 AUDIO
TITLE "2020.02.06-06:04.31:264110"
INDEX 00 05:24:46
INDEX 01 05:30:70

TRACK 14 AUDIO
TITLE "2020.02.06-06:04.59:704121"
INDEX 00 05:51:40
INDEX 01 05:59:28

TRACK 15 AUDIO
TITLE "2020.02.06-06:06.27:684070"
INDEX 00 06:10:24
INDEX 01 07:27:27

TRACK 16 AUDIO
TITLE "2020.02.06-06:08.08:604182"
INDEX 00 07:37:22
INDEX 01 09:08:21

TRACK 17 AUDIO
TITLE "2020.02.06-06:08.40:564138"
INDEX 00 09:36:48
INDEX 01 09:40:18

TRACK 18 AUDIO
TITLE "2020.02.06-06:08.44:666893"
INDEX 00 09:44:09
INDEX 01 09:44:26

TRACK 19 AUDIO
TITLE "2020.02.06-06:09.13:087817"
INDEX 00 09:48:08
INDEX 01 10:12:57

TRACK 20 AUDIO
TITLE "2020.02.06-06:09.42:928277"
INDEX 00 10:22:06
INDEX 01 10:42:45

TRACK 21 AUDIO
TITLE "2020.02.06-06:09.53:504114"
INDEX 00 10:52:38
INDEX 01 10:53:13

TRACK 22 AUDIO
TITLE "2020.02.06-06:10.36:744143"
INDEX 00 11:33:00
INDEX 01 11:36:31

TRACK 23 AUDIO
TITLE "2020.02.06-06:11.03:788343"
INDEX 00 11:45:37
INDEX 01 12:03:35

TRACK 24 AUDIO
TITLE "2020.02.06-06:11.14:304081"
INDEX 00 12:13:06
INDEX 01 12:13:73

TRACK 25 AUDIO
TITLE "2020.02.06-06:11.57:624070"
INDEX 00 12:42:70
INDEX 01 12:57:22

TRACK 26 AUDIO
TITLE "2020.02.06-06:12.10:547209"
INDEX 00 13:05:46
INDEX 01 13:10:17

TRACK 27 AUDIO
TITLE "2020.02.06-06:13.04:824126"
INDEX 00 13:47:23
INDEX 01 14:04:37

TRACK 28 AUDIO
TITLE "2020.02.06-06:13.23:247263"
INDEX 00 14:14:12
INDEX 01 14:22:69

TRACK 29 AUDIO
TITLE "2020.02.06-06:14.26:124157"
INDEX 00 14:39:62
INDEX 01 15:25:60

TRACK 30 AUDIO
TITLE "2020.02.06-06:14.38:588735"
INDEX 00 15:31:10
INDEX 01 15:38:20

TRACK 31 AUDIO
TITLE "2020.02.06-06:15.31:744174"
INDEX 00 16:01:14
INDEX 01 16:31:31

TRACK 32 AUDIO
TITLE "2020.02.06-06:16.10:964172"
INDEX 00 16:47:28
INDEX 01 17:10:48

TRACK 33 AUDIO
TITLE "2020.02.06-06:16.49:724121"
INDEX 00 17:23:64
INDEX 01 17:49:30

TRACK 34 AUDIO
TITLE "2020.02.06-06:16.57:384135"
INDEX 00 17:56:39
INDEX 01 17:57:04

TRACK 35 AUDIO
TITLE "2020.02.06-06:17.15:184137"
INDEX 00 18:14:52
INDEX 01 18:14:64

TRACK 36 AUDIO
TITLE "2020.02.06-06:17.26:104919"
INDEX 00 18:25:33
INDEX 01 18:25:58

TRACK 37 AUDIO
TITLE "2020.02.06-06:17.58:104159"
INDEX 00 18:56:63
INDEX 01 18:57:58

TRACK 38 AUDIO
TITLE "2020.02.06-06:18.03:705615"
INDEX 00 19:01:69
INDEX 01 19:03:29

TRACK 39 AUDIO
TITLE "2020.02.06-06:18.08:328150"
INDEX 00 19:07:57
INDEX 01 19:08:00

TRACK 40 AUDIO
TITLE "2020.02.06-06:18.40:664140"
INDEX 00 19:32:72
INDEX 01 19:40:25

TRACK 41 AUDIO
TITLE "2020.02.06-06:19.01:284049"
INDEX 00 19:58:73
INDEX 01 20:00:72

TRACK 42 AUDIO
TITLE "2020.02.06-06:19.06:765189"
INDEX 00 20:04:49
INDEX 01 20:06:33

TRACK 43 AUDIO
TITLE "2020.02.06-06:19.12:644106"
INDEX 00 20:10:06
INDEX 01 20:12:24

TRACK 44 AUDIO
TITLE "2020.02.06-06:19.27:924139"
INDEX 00 20:20:49
INDEX 01 20:27:45

TRACK 45 AUDIO
TITLE "2020.02.06-06:19.38:208249"
INDEX 00 20:34:40
INDEX 01 20:37:66

TRACK 46 AUDIO
TITLE "2020.02.06-06:19.42:804001"
INDEX 00 20:41:65
INDEX 01 20:42:36

TRACK 47 AUDIO
TITLE "2020.02.06-06:20.07:045850"
INDEX 00 21:04:55
INDEX 01 21:06:54

TRACK 48 AUDIO
TITLE "2020.02.06-06:20.14:164142"
INDEX 00 21:12:45
INDEX 01 21:13:63

TRACK 49 AUDIO
TITLE "2020.02.06-06:20.28:084153"
INDEX 00 21:27:42
INDEX 01 21:27:57

TRACK 50 AUDIO
TITLE "2020.02.06-06:21.00:344143"
INDEX 00 21:42:00
INDEX 01 22:00:01

TRACK 51 AUDIO
TITLE "2020.02.06-06:21.21:984156"
INDEX 00 22:16:27
INDEX 01 22:21:49

TRACK 52 AUDIO
TITLE "2020.02.06-06:21.35:026636"
INDEX 00 22:34:21
INDEX 01 22:34:53

TRACK 53 AUDIO
TITLE "2020.02.06-06:22.26:084147"
INDEX 00 23:19:02
INDEX 01 23:25:57

TRACK 54 AUDIO
TITLE "2020.02.06-06:22.40:265386"
INDEX 00 23:38:18
INDEX 01 23:39:70

TRACK 55 AUDIO
TITLE "2020.02.06-06:23.01:247560"
INDEX 00 23:51:18
INDEX 01 24:00:69

TRACK 56 AUDIO
TITLE "2020.02.06-06:23.22:884114"
INDEX 00 24:15:29
INDEX 01 24:22:42

TRACK 57 AUDIO
TITLE "2020.02.06-06:23.51:008038"
INDEX 00 24:35:30
INDEX 01 24:50:51

TRACK 58 AUDIO
TITLE "2020.02.06-06:23.55:324074"
INDEX 00 24:53:21
INDEX 01 24:55:00

TRACK 59 AUDIO
TITLE "2020.02.06-06:24.08:984175"
INDEX 00 25:05:63
INDEX 01 25:08:49

TRACK 60 AUDIO
TITLE "2020.02.06-06:26.23:964162"
INDEX 00 25:18:30
INDEX 01 27:23:48

TRACK 61 AUDIO
TITLE "2020.02.06-06:26.34:887925"
INDEX 00 27:30:12
INDEX 01 27:34:42

TRACK 62 AUDIO
TITLE "2020.02.06-06:26.48:344241"
INDEX 00 27:43:48
INDEX 01 27:48:01

TRACK 63 AUDIO
TITLE "2020.02.06-06:28.46:167659"
INDEX 00 28:04:48
INDEX 01 29:45:63

TRACK 64 AUDIO
TITLE "2020.02.06-06:29.03:244142"
INDEX 00 29:57:33
INDEX 01 30:02:69

TRACK 65 AUDIO
TITLE "2020.02.06-06:30.16:844066"
INDEX 00 30:12:19
INDEX 01 31:16:39

TRACK 66 AUDIO
TITLE "2020.02.06-06:30.37:068606"
INDEX 00 31:36:04
INDEX 01 31:36:56

TRACK 67 AUDIO
TITLE "2020.02.06-06:31.05:064117"
INDEX 00 32:04:35
INDEX 01 32:04:55

TRACK 68 AUDIO
TITLE "2020.02.06-06:31.31:904167"
INDEX 00 32:31:09
INDEX 01 32:31:43

TRACK 69 AUDIO
TITLE "2020.02.06-06:31.41:984520"
INDEX 00 32:37:13
INDEX 01 32:41:49

TRACK 70 AUDIO
TITLE "2020.02.06-06:31.46:364111"
INDEX 00 32:44:72
INDEX 01 32:46:03

TRACK 71 AUDIO
TITLE "2020.02.06-06:31.59:464151"
INDEX 00 32:55:40
INDEX 01 32:59:10

TRACK 72 AUDIO
TITLE "2020.02.06-06:32.06:004133"
INDEX 00 33:04:42
INDEX 01 33:05:51

TRACK 73 AUDIO
TITLE "2020.02.06-06:32.54:644166"
INDEX 00 33:53:33
INDEX 01 33:54:24

TRACK 74 AUDIO
TITLE "2020.02.06-06:33.24:844104"
INDEX 00 34:24:18
INDEX 01 34:24:39

TRACK 75 AUDIO
TITLE "2020.02.06-06:33.55:108012"
INDEX 00 34:35:27
INDEX 01 34:54:59

TRACK 76 AUDIO
TITLE "2020.02.06-06:34.11:384191"
INDEX 00 35:03:29
INDEX 01 35:11:04

TRACK 77 AUDIO
TITLE "2020.02.06-06:34.35:284115"
INDEX 00 35:26:54
INDEX 01 35:34:72

TRACK 78 AUDIO
TITLE "2020.02.06-06:34.46:204041"
INDEX 00 35:44:61
INDEX 01 35:45:66

TRACK 79 AUDIO
TITLE "2020.02.06-06:34.53:164121"
INDEX 00 35:51:45
INDEX 01 35:52:63

TRACK 80 AUDIO
TITLE "2020.02.06-06:35.15:664176"
INDEX 00 36:04:51
INDEX 01 36:15:25

TRACK 81 AUDIO
TITLE "2020.02.06-06:35.32:724135"
INDEX 00 36:31:34
INDEX 01 36:32:30

TRACK 82 AUDIO
TITLE "2020.02.06-06:35.58:284175"
INDEX 00 36:41:54
INDEX 01 36:57:72

TRACK 83 AUDIO
TITLE "2020.02.06-06:36.06:944160"
INDEX 00 37:03:12
INDEX 01 37:06:46

TRACK 84 AUDIO
TITLE "2020.02.06-06:36.22:404062"
INDEX 00 37:18:42
INDEX 01 37:22:06

TRACK 85 AUDIO
TITLE "2020.02.06-06:36.29:764158"
INDEX 00 37:28:40
INDEX 01 37:29:33

TRACK 86 AUDIO
TITLE "2020.02.06-06:36.52:384087"
INDEX 00 37:40:43
INDEX 01 37:52:04

TRACK 87 AUDIO
TITLE "2020.02.06-06:37.19:644173"
INDEX 00 37:59:49
INDEX 01 38:19:24

TRACK 88 AUDIO
TITLE "2020.02.06-06:38.03:644189"
INDEX 00 38:41:58
INDEX 01 39:03:24

TRACK 89 AUDIO
TITLE "2020.02.06-06:38.07:986367"
INDEX 00 39:07:09
INDEX 01 39:07:50

TRACK 90 AUDIO
TITLE "2020.02.06-06:40.07:344107"
INDEX 00 39:29:69
INDEX 01 41:07:01

TRACK 91 AUDIO
TITLE "2020.02.06-06:40.24:124101"
INDEX 00 41:21:39
INDEX 01 41:23:60

TRACK 92 AUDIO
TITLE "2020.02.06-06:41.08:284171"
INDEX 00 41:32:31
INDEX 01 42:07:72

TRACK 93 AUDIO
TITLE "2020.02.06-06:41.26:606904"
INDEX 00 42:16:52
INDEX 01 42:26:21

TRACK 94 AUDIO
TITLE "2020.02.06-06:41.58:704144"
INDEX 00 42:34:03
INDEX 01 42:58:28

TRACK 95 AUDIO
TITLE "2020.02.06-06:43.12:344052"
INDEX 00 43:14:70
INDEX 01 44:12:01

TRACK 96 AUDIO
TITLE "2020.02.06-06:44.37:184136"
INDEX 00 44:19:55
INDEX 01 45:36:64

TRACK 97 AUDIO
TITLE "2020.02.06-06:44.47:644138"
INDEX 00 45:46:13
INDEX 01 45:47:24

TRACK 98 AUDIO
TITLE "2020.02.06-06:45.01:125366"
INDEX 00 46:00:15
INDEX 01 46:00:60

TRACK 99 AUDIO
TITLE "2020.02.06-06:45.06:004044"
INDEX 00 46:03:04
INDEX 01 46:05:51

TRACK 100 AUDIO
TITLE "2020.02.06-06:45.07:587153"
INDEX 00 46:07:10
INDEX 01 46:07:20

TRACK 101 AUDIO
TITLE "2020.02.06-06:45.13:384153"
INDEX 00 46:12:33
INDEX 01 46:13:04

TRACK 102 AUDIO
TITLE "2020.02.06-06:46.01:244120"
INDEX 00 46:35:57
INDEX 01 47:00:69

TRACK 103 AUDIO
TITLE "2020.02.06-06:49.22:464192"
INDEX 00 47:09:49
INDEX 01 50:22:10

TRACK 104 AUDIO
TITLE "2020.02.06-06:49.38:666287"
INDEX 00 50:23:63
INDEX 01 50:38:26

TRACK 105 AUDIO
TITLE "2020.02.06-06:50.02:184134"
INDEX 00 50:57:29
INDEX 01 51:01:64

TRACK 106 AUDIO
TITLE "2020.02.06-06:50.28:204183"
INDEX 00 51:20:36
INDEX 01 51:27:66

TRACK 107 AUDIO
TITLE "2020.02.06-06:50.41:284130"
INDEX 00 51:40:51
INDEX 01 51:40:72

TRACK 108 AUDIO
TITLE "2020.02.06-06:51.38:464153"
INDEX 00 51:43:03
INDEX 01 52:38:10

TRACK 109 AUDIO
TITLE "2020.02.06-06:52.06:168364"
INDEX 00 52:47:69
INDEX 01 53:05:63

TRACK 110 AUDIO
TITLE "2020.02.06-06:52.52:264110"
INDEX 00 53:42:39
INDEX 01 53:51:70

TRACK 111 AUDIO
TITLE "2020.02.06-06:53.23:724116"
INDEX 00 54:19:33
INDEX 01 54:23:30

TRACK 112 AUDIO
TITLE "2020.02.06-06:54.41:428938"
INDEX 00 54:34:61
INDEX 01 55:41:08

TRACK 113 AUDIO
TITLE "2020.02.06-06:55.09:884259"
INDEX 00 55:52:63
INDEX 01 56:09:42

TRACK 114 AUDIO
TITLE "2020.02.06-06:55.26:868133"
INDEX 00 56:25:13
INDEX 01 56:26:41

TRACK 115 AUDIO
TITLE "2020.02.06-06:55.33:224003"
INDEX 00 56:32:54
INDEX 01 56:32:67

TRACK 116 AUDIO
TITLE "2020.02.06-06:56.04:706365"
INDEX 00 56:55:24
INDEX 01 57:04:29

TRACK 117 AUDIO
TITLE "2020.02.06-06:56.47:764039"
INDEX 00 57:13:29
INDEX 01 57:47:33

TRACK 118 AUDIO
TITLE "2020.02.06-06:56.50:287868"
INDEX 00 57:49:61
INDEX 01 57:49:72

TRACK 119 AUDIO
TITLE "2020.02.06-06:56.56:664106"
INDEX 00 57:55:39
INDEX 01 57:56:25

TRACK 120 AUDIO
TITLE "2020.02.06-06:57.03:664118"
INDEX 00 58:02:19
INDEX 01 58:03:25

TRACK 121 AUDIO
TITLE "2020.02.06-06:57.15:446309"
INDEX 00 58:14:03
INDEX 01 58:15:09

TRACK 122 AUDIO
TITLE "2020.02.06-06:57.36:764138"
INDEX 00 58:25:69
INDEX 01 58:36:33

TRACK 123 AUDIO
TITLE "2020.02.06-06:57.54:424124"
INDEX 00 58:39:19
INDEX 01 58:54:07

TRACK 124 AUDIO
TITLE "2020.02.06-06:58.14:404150"
INDEX 00 59:11:51
INDEX 01 59:14:06

TRACK 125 AUDIO
TITLE "2020.02.06-06:58.25:804164"
INDEX 00 59:22:51
INDEX 01 59:25:36

TRACK 126 AUDIO
TITLE "2020.02.06-06:58.30:664357"
INDEX 00 59:29:19
INDEX 01 59:30:25

TRACK 127 AUDIO
TITLE "2020.02.06-06:58.39:404184"
INDEX 00 59:36:03
INDEX 01 59:39:06

TRACK 128 AUDIO
TITLE "2020.02.06-06:58.43:704141"
INDEX 00 59:43:12
INDEX 01 59:43:28

TRACK 129 AUDIO
TITLE "2020.02.06-06:58.47:848677"
INDEX 00 59:47:06
INDEX 01 59:47:39

TRACK 130 AUDIO
TITLE "2020.02.06-06:59.21:404620"
INDEX 00 59:52:54
INDEX 01 60:21:06

TRACK 131 AUDIO
TITLE "2020.02.06-07:01.10:267575"
INDEX 00 60:30:01
INDEX 01 62:09:71

